<svg id="visual" viewBox="0 0 960 540" width="960" height="540" xmlns="http://www.w3.org/2000/svg" xmlns:xlink="http://www.w3.org/1999/xlink" version="1.1"><rect x="0" y="0" width="960" height="540" fill="#202731"></rect><path d="M0 282L32 286.5C64 291 128 300 192 284.7C256 269.3 320 229.7 384 218.7C448 207.7 512 225.3 576 238.2C640 251 704 259 768 251.2C832 243.3 896 219.7 928 207.8L960 196L960 0L928 0C896 0 832 0 768 0C704 0 640 0 576 0C512 0 448 0 384 0C320 0 256 0 192 0C128 0 64 0 32 0L0 0Z" fill="#5195CF" stroke-linecap="round" stroke-linejoin="miter"></path></svg>