<svg id="visual" viewBox="0 0 960 540" width="960" height="540" xmlns="http://www.w3.org/2000/svg" xmlns:xlink="http://www.w3.org/1999/xlink" version="1.1"><rect x="0" y="0" width="960" height="540" fill="#dd3f31"></rect><path d="M0 125L32 137.2C64 149.3 128 173.7 192 191.7C256 209.7 320 221.3 384 226.5C448 231.7 512 230.3 576 210.8C640 191.3 704 153.7 768 144.5C832 135.3 896 154.7 928 164.3L960 174L960 0L928 0C896 0 832 0 768 0C704 0 640 0 576 0C512 0 448 0 384 0C320 0 256 0 192 0C128 0 64 0 32 0L0 0Z" fill="#202731" stroke-linecap="round" stroke-linejoin="miter"></path></svg>