<svg id="visual" viewBox="0 0 960 540" width="960" height="540" xmlns="http://www.w3.org/2000/svg" xmlns:xlink="http://www.w3.org/1999/xlink" version="1.1"><rect x="0" y="0" width="960" height="540" fill="#dd3f31"></rect><path d="M0 144L12.3 130.8C24.7 117.7 49.3 91.3 74 83.7C98.7 76 123.3 87 148 99.8C172.7 112.7 197.3 127.3 221.8 137C246.3 146.7 270.7 151.3 295.2 144C319.7 136.7 344.3 117.3 369 102.5C393.7 87.7 418.3 77.3 443 91.5C467.7 105.7 492.3 144.3 517 165.2C541.7 186 566.3 189 591 190.7C615.7 192.3 640.3 192.7 664.8 167.2C689.3 141.7 713.7 90.3 738.2 90.2C762.7 90 787.3 141 812 146.3C836.7 151.7 861.3 111.3 886 94.5C910.7 77.7 935.3 84.3 947.7 87.7L960 91L960 541L947.7 541C935.3 541 910.7 541 886 541C861.3 541 836.7 541 812 541C787.3 541 762.7 541 738.2 541C713.7 541 689.3 541 664.8 541C640.3 541 615.7 541 591 541C566.3 541 541.7 541 517 541C492.3 541 467.7 541 443 541C418.3 541 393.7 541 369 541C344.3 541 319.7 541 295.2 541C270.7 541 246.3 541 221.8 541C197.3 541 172.7 541 148 541C123.3 541 98.7 541 74 541C49.3 541 24.7 541 12.3 541L0 541Z" fill="#dd3f31"></path><path d="M0 233L12.3 232.5C24.7 232 49.3 231 74 241.5C98.7 252 123.3 274 148 262.3C172.7 250.7 197.3 205.3 221.8 198.3C246.3 191.3 270.7 222.7 295.2 231.8C319.7 241 344.3 228 369 209.7C393.7 191.3 418.3 167.7 443 179.8C467.7 192 492.3 240 517 266.5C541.7 293 566.3 298 591 297.7C615.7 297.3 640.3 291.7 664.8 274.3C689.3 257 713.7 228 738.2 224.3C762.7 220.7 787.3 242.3 812 239.2C836.7 236 861.3 208 886 194.2C910.7 180.3 935.3 180.7 947.7 180.8L960 181L960 541L947.7 541C935.3 541 910.7 541 886 541C861.3 541 836.7 541 812 541C787.3 541 762.7 541 738.2 541C713.7 541 689.3 541 664.8 541C640.3 541 615.7 541 591 541C566.3 541 541.7 541 517 541C492.3 541 467.7 541 443 541C418.3 541 393.7 541 369 541C344.3 541 319.7 541 295.2 541C270.7 541 246.3 541 221.8 541C197.3 541 172.7 541 148 541C123.3 541 98.7 541 74 541C49.3 541 24.7 541 12.3 541L0 541Z" fill="#9e2160"></path><path d="M0 330L12.3 316.8C24.7 303.7 49.3 277.3 74 284.7C98.7 292 123.3 333 148 346.3C172.7 359.7 197.3 345.3 221.8 327.3C246.3 309.3 270.7 287.7 295.2 277.7C319.7 267.7 344.3 269.3 369 284.2C393.7 299 418.3 327 443 348.8C467.7 370.7 492.3 386.3 517 392C541.7 397.7 566.3 393.3 591 368C615.7 342.7 640.3 296.3 664.8 286.2C689.3 276 713.7 302 738.2 323.5C762.7 345 787.3 362 812 366.7C836.7 371.3 861.3 363.7 886 366.2C910.7 368.7 935.3 381.3 947.7 387.7L960 394L960 541L947.7 541C935.3 541 910.7 541 886 541C861.3 541 836.7 541 812 541C787.3 541 762.7 541 738.2 541C713.7 541 689.3 541 664.8 541C640.3 541 615.7 541 591 541C566.3 541 541.7 541 517 541C492.3 541 467.7 541 443 541C418.3 541 393.7 541 369 541C344.3 541 319.7 541 295.2 541C270.7 541 246.3 541 221.8 541C197.3 541 172.7 541 148 541C123.3 541 98.7 541 74 541C49.3 541 24.7 541 12.3 541L0 541Z" fill="#43285b"></path><path d="M0 396L12.3 414.5C24.7 433 49.3 470 74 479C98.7 488 123.3 469 148 468.3C172.7 467.7 197.3 485.3 221.8 469.8C246.3 454.3 270.7 405.7 295.2 384.2C319.7 362.7 344.3 368.3 369 384.8C393.7 401.3 418.3 428.7 443 434.5C467.7 440.3 492.3 424.7 517 426.7C541.7 428.7 566.3 448.3 591 452.8C615.7 457.3 640.3 446.7 664.8 435.3C689.3 424 713.7 412 738.2 407.7C762.7 403.3 787.3 406.7 812 398.2C836.7 389.7 861.3 369.3 886 364.8C910.7 360.3 935.3 371.7 947.7 377.3L960 383L960 541L947.7 541C935.3 541 910.7 541 886 541C861.3 541 836.7 541 812 541C787.3 541 762.7 541 738.2 541C713.7 541 689.3 541 664.8 541C640.3 541 615.7 541 591 541C566.3 541 541.7 541 517 541C492.3 541 467.7 541 443 541C418.3 541 393.7 541 369 541C344.3 541 319.7 541 295.2 541C270.7 541 246.3 541 221.8 541C197.3 541 172.7 541 148 541C123.3 541 98.7 541 74 541C49.3 541 24.7 541 12.3 541L0 541Z" fill="#04172a"></path></svg>